<mxfile host="65bd71144e">
    <diagram name="Page-1" id="1VTvxivwpSPhkvNJXZJ3">
        <mxGraphModel dx="1278" dy="884" grid="1" gridSize="10" guides="1" tooltips="1" connect="1" arrows="1" fold="1" page="1" pageScale="1" pageWidth="850" pageHeight="1100" background="#ffffff" math="0" shadow="0">
            <root>
                <mxCell id="sueAwKAaTNoMhfTQWeYg-0"/>
                <mxCell id="sueAwKAaTNoMhfTQWeYg-1" parent="sueAwKAaTNoMhfTQWeYg-0"/>
                <mxCell id="sueAwKAaTNoMhfTQWeYg-2" value="http://ics2o.mths.ca" style="swimlane;whiteSpace=wrap;html=1;strokeColor=#000000;strokeWidth=1;gradientColor=none;perimeterSpacing=0;glass=0;labelBackgroundColor=none;labelBorderColor=none;" parent="sueAwKAaTNoMhfTQWeYg-1" vertex="1">
                    <mxGeometry x="40" y="40" width="760" height="610" as="geometry"/>
                </mxCell>
                <mxCell id="sueAwKAaTNoMhfTQWeYg-3" value="" style="whiteSpace=wrap;html=1;glass=0;labelBackgroundColor=none;labelBorderColor=none;fontSize=22;fillColor=#ffcc99;strokeColor=#36393d;" parent="sueAwKAaTNoMhfTQWeYg-2" vertex="1">
                    <mxGeometry y="20" width="760" height="590" as="geometry"/>
                </mxCell>
                <mxCell id="sueAwKAaTNoMhfTQWeYg-4" value="" style="whiteSpace=wrap;html=1;fontSize=22;fillColor=#ffcd28;strokeColor=#d79b00;gradientColor=none;" parent="sueAwKAaTNoMhfTQWeYg-2" vertex="1">
                    <mxGeometry y="20" width="760" height="50" as="geometry"/>
                </mxCell>
                <mxCell id="sueAwKAaTNoMhfTQWeYg-6" value="" style="whiteSpace=wrap;html=1;glass=0;labelBackgroundColor=none;labelBorderColor=none;fontSize=22;fontColor=#000000;fillColor=#6D6F6B;gradientColor=none;" parent="sueAwKAaTNoMhfTQWeYg-2" vertex="1">
                    <mxGeometry x="20" y="142.5" width="150" height="25" as="geometry"/>
                </mxCell>
                <mxCell id="sueAwKAaTNoMhfTQWeYg-8" value="&lt;span style=&quot;font-size: 24px;&quot;&gt;Enter an age and the day of the week.&lt;/span&gt;" style="text;html=1;align=center;verticalAlign=middle;resizable=0;points=[];autosize=1;fontSize=26;fontColor=#000000;" parent="sueAwKAaTNoMhfTQWeYg-2" vertex="1">
                    <mxGeometry x="30" y="70" width="430" height="40" as="geometry"/>
                </mxCell>
                <mxCell id="sueAwKAaTNoMhfTQWeYg-9" value="&lt;span style=&quot;font-size: 17px;&quot;&gt;Age&lt;/span&gt;" style="text;align=center;html=1;verticalAlign=middle;whiteSpace=wrap;rounded=0;fontColor=#000000;" parent="sueAwKAaTNoMhfTQWeYg-2" vertex="1">
                    <mxGeometry x="20" y="112.5" width="110" height="30" as="geometry"/>
                </mxCell>
                <mxCell id="sueAwKAaTNoMhfTQWeYg-13" value="Calculate" style="whiteSpace=wrap;html=1;fillColor=#999999;" parent="sueAwKAaTNoMhfTQWeYg-2" vertex="1">
                    <mxGeometry x="30" y="240" width="120" height="30" as="geometry"/>
                </mxCell>
                <mxCell id="sueAwKAaTNoMhfTQWeYg-14" value="You have not entered information yet." style="text;strokeColor=none;align=left;fillColor=none;html=1;verticalAlign=middle;whiteSpace=wrap;rounded=0;fontSize=18;fontColor=#000000;" parent="sueAwKAaTNoMhfTQWeYg-2" vertex="1">
                    <mxGeometry x="10" y="280" width="530" height="30" as="geometry"/>
                </mxCell>
                <mxCell id="sueAwKAaTNoMhfTQWeYg-15" value="Museum Pricing Calculator" style="text;html=1;align=center;verticalAlign=middle;resizable=0;points=[];autosize=1;fontSize=30;fontColor=#000000;" parent="sueAwKAaTNoMhfTQWeYg-2" vertex="1">
                    <mxGeometry x="195" y="20" width="380" height="50" as="geometry"/>
                </mxCell>
                <mxCell id="2" value="You pay: ..." style="text;strokeColor=none;align=left;fillColor=none;html=1;verticalAlign=middle;whiteSpace=wrap;rounded=0;fontSize=18;fontColor=#000000;" vertex="1" parent="sueAwKAaTNoMhfTQWeYg-2">
                    <mxGeometry x="10" y="310" width="530" height="30" as="geometry"/>
                </mxCell>
                <mxCell id="iGiyrYhKWCO6xkSs6Czd-1" value="&lt;font color=&quot;#ffffff&quot;&gt;Monday&lt;/font&gt;" style="whiteSpace=wrap;html=1;glass=0;labelBackgroundColor=none;labelBorderColor=none;fontSize=22;fontColor=#000000;fillColor=#6D6F6B;gradientColor=none;" parent="sueAwKAaTNoMhfTQWeYg-1" vertex="1">
                    <mxGeometry x="60" y="236.5" width="150" height="25" as="geometry"/>
                </mxCell>
                <mxCell id="iGiyrYhKWCO6xkSs6Czd-2" value="&lt;font style=&quot;font-size: 17px;&quot;&gt;Day of Week&lt;/font&gt;" style="text;align=center;html=1;verticalAlign=middle;whiteSpace=wrap;rounded=0;fontColor=#000000;" parent="sueAwKAaTNoMhfTQWeYg-1" vertex="1">
                    <mxGeometry x="60" y="206.5" width="110" height="30" as="geometry"/>
                </mxCell>
                <mxCell id="4" value="&lt;font color=&quot;#000000&quot;&gt;&lt;font style=&quot;font-size: 18px;&quot;&gt;V&lt;/font&gt;&lt;br&gt;&lt;/font&gt;" style="text;strokeColor=none;align=center;fillColor=none;html=1;verticalAlign=middle;whiteSpace=wrap;rounded=0;fontColor=#FFFFFF;" vertex="1" parent="sueAwKAaTNoMhfTQWeYg-1">
                    <mxGeometry x="160" y="234" width="70" height="30" as="geometry"/>
                </mxCell>
            </root>
        </mxGraphModel>
    </diagram>
    <diagram name="Page-2" id="smSZa1nACP5V8KtT7yY3">
        <mxGraphModel dx="1086" dy="751" grid="1" gridSize="10" guides="1" tooltips="1" connect="1" arrows="1" fold="1" page="1" pageScale="1" pageWidth="850" pageHeight="1100" background="#ffffff" math="0" shadow="0">
            <root>
                <mxCell id="5_md-_OnkzW1x6qCUkGa-0"/>
                <mxCell id="5_md-_OnkzW1x6qCUkGa-1" parent="5_md-_OnkzW1x6qCUkGa-0"/>
                <mxCell id="5_md-_OnkzW1x6qCUkGa-2" value="http://ics2o.mths.ca" style="swimlane;whiteSpace=wrap;html=1;strokeColor=#000000;strokeWidth=1;gradientColor=none;perimeterSpacing=0;glass=0;labelBackgroundColor=none;labelBorderColor=none;" vertex="1" parent="5_md-_OnkzW1x6qCUkGa-1">
                    <mxGeometry x="40" y="40" width="760" height="610" as="geometry"/>
                </mxCell>
                <mxCell id="5_md-_OnkzW1x6qCUkGa-3" value="" style="whiteSpace=wrap;html=1;glass=0;labelBackgroundColor=none;labelBorderColor=none;fontSize=22;fillColor=#ffcc99;strokeColor=#36393d;" vertex="1" parent="5_md-_OnkzW1x6qCUkGa-2">
                    <mxGeometry y="20" width="760" height="590" as="geometry"/>
                </mxCell>
                <mxCell id="5_md-_OnkzW1x6qCUkGa-4" value="" style="whiteSpace=wrap;html=1;fontSize=22;fillColor=#ffcd28;strokeColor=#d79b00;gradientColor=none;" vertex="1" parent="5_md-_OnkzW1x6qCUkGa-2">
                    <mxGeometry y="20" width="760" height="50" as="geometry"/>
                </mxCell>
                <mxCell id="5_md-_OnkzW1x6qCUkGa-5" value="&lt;font color=&quot;#ffffff&quot;&gt;22&lt;/font&gt;" style="whiteSpace=wrap;html=1;glass=0;labelBackgroundColor=none;labelBorderColor=none;fontSize=22;fontColor=#000000;fillColor=#6D6F6B;gradientColor=none;" vertex="1" parent="5_md-_OnkzW1x6qCUkGa-2">
                    <mxGeometry x="20" y="142.5" width="150" height="25" as="geometry"/>
                </mxCell>
                <mxCell id="5_md-_OnkzW1x6qCUkGa-6" value="&lt;span style=&quot;font-size: 24px;&quot;&gt;Enter an age and the day of the week.&lt;/span&gt;" style="text;html=1;align=center;verticalAlign=middle;resizable=0;points=[];autosize=1;fontSize=26;fontColor=#000000;" vertex="1" parent="5_md-_OnkzW1x6qCUkGa-2">
                    <mxGeometry x="30" y="70" width="430" height="40" as="geometry"/>
                </mxCell>
                <mxCell id="5_md-_OnkzW1x6qCUkGa-7" value="&lt;span style=&quot;font-size: 17px;&quot;&gt;Age&lt;/span&gt;" style="text;align=center;html=1;verticalAlign=middle;whiteSpace=wrap;rounded=0;fontColor=#000000;" vertex="1" parent="5_md-_OnkzW1x6qCUkGa-2">
                    <mxGeometry x="20" y="112.5" width="110" height="30" as="geometry"/>
                </mxCell>
                <mxCell id="5_md-_OnkzW1x6qCUkGa-8" value="Calculate" style="whiteSpace=wrap;html=1;fillColor=#999999;" vertex="1" parent="5_md-_OnkzW1x6qCUkGa-2">
                    <mxGeometry x="30" y="240" width="120" height="30" as="geometry"/>
                </mxCell>
                <mxCell id="5_md-_OnkzW1x6qCUkGa-9" value="You pay weekend pricing." style="text;strokeColor=none;align=left;fillColor=none;html=1;verticalAlign=middle;whiteSpace=wrap;rounded=0;fontSize=18;fontColor=#000000;" vertex="1" parent="5_md-_OnkzW1x6qCUkGa-2">
                    <mxGeometry x="10" y="280" width="530" height="30" as="geometry"/>
                </mxCell>
                <mxCell id="5_md-_OnkzW1x6qCUkGa-10" value="Museum Pricing Calculator" style="text;html=1;align=center;verticalAlign=middle;resizable=0;points=[];autosize=1;fontSize=30;fontColor=#000000;" vertex="1" parent="5_md-_OnkzW1x6qCUkGa-2">
                    <mxGeometry x="195" y="20" width="380" height="50" as="geometry"/>
                </mxCell>
                <mxCell id="5_md-_OnkzW1x6qCUkGa-11" value="You pay: $22" style="text;strokeColor=none;align=left;fillColor=none;html=1;verticalAlign=middle;whiteSpace=wrap;rounded=0;fontSize=18;fontColor=#000000;" vertex="1" parent="5_md-_OnkzW1x6qCUkGa-2">
                    <mxGeometry x="10" y="310" width="530" height="30" as="geometry"/>
                </mxCell>
                <mxCell id="5_md-_OnkzW1x6qCUkGa-12" value="&lt;font color=&quot;#ffffff&quot;&gt;Sunday&lt;/font&gt;" style="whiteSpace=wrap;html=1;glass=0;labelBackgroundColor=none;labelBorderColor=none;fontSize=22;fontColor=#000000;fillColor=#6D6F6B;gradientColor=none;" vertex="1" parent="5_md-_OnkzW1x6qCUkGa-1">
                    <mxGeometry x="60" y="236.5" width="150" height="25" as="geometry"/>
                </mxCell>
                <mxCell id="5_md-_OnkzW1x6qCUkGa-13" value="&lt;font style=&quot;font-size: 17px;&quot;&gt;Day of Week&lt;/font&gt;" style="text;align=center;html=1;verticalAlign=middle;whiteSpace=wrap;rounded=0;fontColor=#000000;" vertex="1" parent="5_md-_OnkzW1x6qCUkGa-1">
                    <mxGeometry x="60" y="206.5" width="110" height="30" as="geometry"/>
                </mxCell>
                <mxCell id="5_md-_OnkzW1x6qCUkGa-14" value="&lt;font color=&quot;#000000&quot;&gt;&lt;font style=&quot;font-size: 18px;&quot;&gt;V&lt;/font&gt;&lt;br&gt;&lt;/font&gt;" style="text;strokeColor=none;align=center;fillColor=none;html=1;verticalAlign=middle;whiteSpace=wrap;rounded=0;fontColor=#FFFFFF;" vertex="1" parent="5_md-_OnkzW1x6qCUkGa-1">
                    <mxGeometry x="160" y="234" width="70" height="30" as="geometry"/>
                </mxCell>
            </root>
        </mxGraphModel>
    </diagram>
</mxfile>